<svg width="314" height="320" viewBox="0 0 314 320" fill="none" xmlns="http://www.w3.org/2000/svg">
<path fill-rule="evenodd" clip-rule="evenodd" d="M179.6 200.84C176.34 206.99 175.2 213.93 174.86 220.81C174.77 222.62 174 223.5 173.19 225.01C172.84 225.66 172.49 226.34 172.14 226.99C171.6 227.98 171.04 228.44 170.73 229.64C170.51 230.49 170.29 231.1 170.17 231.98C170.1 232.55 169.98 233.06 169.93 233.65C169.86 234.42 169.87 235.16 169.78 235.93C169.72 236.5 169.7 237.02 169.66 237.59C169.62 238.07 169.49 238.62 169.41 239.11C169.28 239.95 169.04 240.85 168.86 241.69C168.75 242.19 168.61 242.63 168.51 243.15C168.37 243.82 168.26 244.41 168.08 245.08C167.71 246.43 167.73 248.39 167.69 249.82C167.69 249.98 167.66 250.13 167.73 250.27C167.92 250.25 167.9 249.92 167.91 249.78C168.05 247.99 167.9 246.67 168.43 244.87C168.67 244.04 168.78 243.16 169.03 242.32C169.18 241.81 169.3 241.24 169.44 240.71C169.66 239.85 169.82 238.98 170 238.12C170.11 237.58 170.13 236.82 170.2 236.25C170.26 235.75 170.31 235.38 170.35 234.88C170.42 233.94 170.5 233.34 170.71 232.42C170.83 231.88 170.89 231.48 171.08 230.93C171.63 229.39 171.6 229.29 172.69 228.04C173.05 227.63 173.97 226.47 174.48 226.39C174.89 226.32 174.82 227.02 174.83 227.3C174.98 232.02 175.48 236.74 176.2 241.41C177.79 248.32 178.83 251.04 179.21 252.82L181.62 255.67C184.36 258.96 182.29 260.02 185.85 261.5C187.06 262 188.28 262.46 189.49 262.93C191.32 263.63 192 263.62 192.8 264.86C195.5 264.55 199.26 263.95 201.62 262.88C205.65 261.06 210.11 260.13 214.97 262.86C219.84 265.59 221.03 270.45 225.76 270.45C227.96 270.43 230.35 272.25 232.56 271.75C235.5 271.1 238.46 270.46 241.42 270.29C242.4 270.24 243.39 270.25 244.38 270.33C254.13 274.59 264.52 272.59 274.51 271.39C266.92 272.59 257.73 275.28 250.14 274.09C251.34 275.69 252.14 278.59 254.14 279.78C250.55 280.18 249.75 276.19 248.15 274.19C247.35 273.39 246.55 272.99 245.84 272.97C244.79 272.85 243.63 272.91 242.71 272.83C241.61 272.83 240.52 272.9 240.14 273.16C239.76 273.42 240.23 274.33 240.9 275.33C241.57 276.34 242.42 277.44 242.78 278.1C242.95 279.79 243.97 282.14 244.25 283.88C244.44 285.92 243.9 286.9 243.82 286.34C243.75 285.77 243.45 284.27 243.13 282.82C242.81 281.38 242.46 280 242.29 279.69C241.94 279.07 241.46 278.16 240.73 277.53C240 276.9 238.3 275.09 237.88 274.75C237.46 274.41 236.35 273.84 236.35 273.84C235.57 274.03 229.64 275.46 229.3 275.67C228.86 275.93 229.45 276.53 229.66 276.78C230.15 277.35 230.79 277.97 231.33 278.51C231.79 278.98 232.29 279.42 232.76 279.9C233.49 280.63 234.24 281.32 234.96 282.07C235.53 282.68 236.2 283.33 236.83 283.88C237.49 284.47 238.18 284.72 238.85 285.22C239.3 285.55 239.24 285.84 238.76 285.58C238.24 285.3 237.61 284.96 237.11 284.65C236.52 284.28 235.63 283.43 235.08 282.93C234.32 282.24 233.62 281.6 232.83 280.94C232.24 280.45 231.76 280.02 231.14 279.56C229.82 278.58 229.29 277.98 227.62 277.51C226.93 277.32 226.44 277.18 225.73 277.04C225.43 276.98 225.11 276.91 224.82 276.8C224.62 276.73 224.54 276.76 224.51 277.01C224.45 277.54 224.75 278.09 225.12 278.44C225.96 279.23 227.19 279.49 227.77 280.58C224.57 280.98 223.37 277.78 221.34 276.23C220.75 275.66 219.48 274.43 218.17 273.21C216.87 271.99 215.53 270.77 214.8 270.2C213.34 269.06 211.32 267.7 209.24 267.7C207.15 267.7 203.19 269.4 203.19 269.4L201.4 270.05C203.14 270.5 203.42 271.14 205 272.85C207.43 275.49 209.19 273.21 211.99 274.05C212.84 274.33 214.16 275.64 214.99 276.05C215.82 276.46 217.19 278.51 217.99 279.05C222.36 283.7 224.18 286.99 230.57 287.79C231.77 287.99 232.87 288.41 233.9 288.99C236.99 290.73 239.46 293.88 242.16 296.58C240.06 296.18 239.51 295.41 237.57 294.08C236.6 293.42 234.78 290.95 233.74 290.61C232.22 289.99 231.17 290 229.59 290.17C228.76 290.26 227.82 289.82 227.1 289.44C226.42 289.08 226.1 288.74 225.51 288.31C225.29 288.16 224.72 287.78 224.53 288.16C224.33 288.55 225.21 289.48 225.46 289.78C225.87 290.28 226.46 290.82 226.92 291.3C227.45 291.86 227.81 292.23 228.42 292.72C228.85 293.06 229.27 293.51 229.7 293.89C230.31 294.43 230.89 294.93 231.46 295.51C231.84 295.89 232.14 296.17 232.5 296.59C233.66 297.93 234.52 298.59 235.13 300.37C235.34 300.98 235.4 301.63 235.6 302.26C235.83 303.01 236.08 303.76 236.47 304.45C236.81 305.05 236.26 303.28 236.57 304.14C236.63 304.32 236.81 304.9 236.48 304.92C236.18 304.94 235.78 303.95 235.67 303.72C235.37 303.05 235.08 302.13 234.91 301.41C234.48 299.61 233.61 298.8 232.3 297.61C231.85 297.2 231.5 296.87 231.01 296.49C229.85 295.6 228.63 294.82 227.47 293.91C223.29 290.64 219.74 286.71 215.76 283.24C215.01 282.58 214.24 281.94 213.43 281.35C212.36 280.56 213.35 280.84 212.11 280.3C210.88 279.24 208.49 278.54 207.31 278.5C206.14 278.46 204.04 278.09 202.96 277.38C202.12 276.82 199.52 275.44 198.92 275.11C198.45 274.85 194.95 274.11 193.7 273.48C193.51 274.02 196.97 275.79 197.26 276.1C197.91 276.79 198.72 277.43 199.42 278.01C200.49 278.88 201.56 279.73 202.65 280.58C203.58 281.32 204.5 282.06 205.42 282.84C206.2 283.8 207.4 284.6 208.2 285.4C211.13 289.4 212.81 294.1 215.39 298.21C215.89 298.96 219.86 301.4 220.98 302.12C221.58 302.5 222.17 302.76 222.77 303.19C223.29 303.56 223.78 303.85 224.29 304.24C224.86 304.68 225.46 305 226.07 305.36C226.57 305.66 227.07 306.09 227.51 306.47C228.25 307.08 228.88 307.68 229.51 308.4C230.05 309.01 230.63 309.59 231.2 310.18C231.39 310.38 232.2 311.35 232.17 311.57C232.14 311.9 231.71 311.53 231.61 311.44C231.31 311.14 231.08 310.81 230.76 310.51C230.09 309.87 229.46 309.24 228.8 308.58C228.15 307.92 226.51 306.63 225.7 306.24C224.98 305.9 224.33 305.63 223.64 305.22C223.19 304.95 222.63 304.69 222.15 304.46C221.61 304.2 220.78 303.98 220.18 303.77C217.79 302.17 214.59 301.37 212.59 298.98C211.99 298.24 211.47 297.48 211 296.7C208.63 292.77 207.45 288.37 203.73 285.28C202.86 284.54 201.97 283.83 201.09 283.12C199.32 281.71 197.52 280.36 195.7 279.08C194.76 278.43 193.81 277.79 192.83 277.21C192.26 276.91 191.66 276.66 191.11 276.3C189.21 275.06 188.38 274.12 186.22 273.43L186.06 273.38C184.07 272.71 183.55 270.8 181.98 269.79C181.83 269.69 181.87 269.83 181.91 269.95C182.02 270.31 182.18 270.6 182.29 271C182.35 271.22 182.74 272.52 182.65 272.65C182.44 272.61 181.66 271.44 181.4 271.17C181.01 270.76 180.47 270.38 180.04 269.98C179.28 269.28 178.53 268.42 177.93 267.57C177.42 266.84 176.83 265.88 176.41 265.09C175.95 264.24 175.52 262.81 175.4 261.85C175.33 261.25 175.21 260.68 175.14 260.07C175.09 259.59 174.91 258.98 174.79 258.51C174.91 259.11 175.07 259.55 175.12 260.19C175.17 260.75 175.28 261.27 175.33 261.82C175.45 263.1 175.92 264.61 176.53 265.74C176.97 266.55 177.34 267.33 177.83 268.12C178.52 269.24 179.18 270.33 180.21 271.19C181.03 271.88 181.53 272.76 182.05 273.69C182.24 274.01 182.41 274.33 182.6 274.65C183.31 275.86 184.09 276.95 185.37 277.37C187.03 277.98 187.85 278.89 188.59 279.9C189.33 280.9 190 281.98 191.35 282.94C193.81 285 196.61 287 198.98 289.19C199.92 290.15 200.7 291.21 201.38 292.3C201.95 293.22 202.44 294.17 202.9 295.14C203.36 296.11 203.78 297.09 204.21 298.07C205.28 300.28 206.62 302.88 208.12 304.81C208.38 305.14 209.02 305.62 209.36 305.95C209.77 306.34 210.15 306.78 210.55 307.19C210.98 307.63 211.3 308.04 211.79 308.43C212.48 308.97 213.15 309.56 213.84 310.12C214.28 310.49 214.67 310.87 215.1 311.25C215.66 311.75 216.19 312.17 216.71 312.72C216.9 312.92 217.19 313.22 217.38 313.38C217.28 313.24 216.83 312.81 216.68 312.64C216.68 312.64 215.8 311.72 216.04 311.95C216.64 312.52 217.19 313.14 217.79 313.73C217.91 313.85 218.69 314.57 218.3 314.7C218.01 314.8 217.03 313.87 216.79 313.65C216.34 313.24 215.96 312.87 215.47 312.48C215.31 312.35 214.07 311.42 214.08 311.35C214.09 311.27 212.19 309.88 211.99 309.75C211.64 309.51 211.21 309.22 210.88 308.97C210.44 308.64 209.93 308.12 209.49 307.73C208.75 307.07 208.55 306.8 207.63 306.33C206.97 306 206.76 305.83 206.2 305.34C203.8 303.26 201.84 300.69 199.9 298.19C199.34 297.25 198.8 296.28 198.25 295.34C196.02 291.57 193.54 288.2 189.81 288.2C186.35 287.94 186.97 292.29 188.12 296.64C188.41 297.73 188.73 298.81 189.05 299.83C189.38 300.84 189.77 301.76 190.12 302.52C189.1 301.37 187.81 300.19 187.4 299C187.07 298.07 186.8 297.12 186.57 296.18C185.42 291.44 185.2 286.61 182.23 282.59C181.34 281.27 180.3 280.05 179.04 278.98C178.6 278.59 178.47 278.41 178.4 277.83C178.33 277.16 177.93 277.38 177.8 277.97C177.75 278.21 177.72 278.53 177.72 278.78C177.72 278.78 177.64 277.18 177.55 277.75C177.45 278.34 177.58 279.41 177.72 280C177.91 280.77 178.14 281.57 178.35 282.34C178.55 283.11 178.83 284 179.13 284.73C179.33 285.23 179.5 285.73 179.69 286.22C179.83 286.57 179.99 286.91 180.12 287.28C180.27 287.67 180.38 287.95 180.51 288.36C180.71 289.06 180.89 289.39 181.18 290.04C181.22 290.14 181.62 290.95 181.3 290.9C181.14 290.88 180.76 290.03 180.67 289.86C180.4 289.33 180.25 288.95 180.07 288.37C179.83 287.61 179.4 286.78 179.09 286.03C178.78 285.28 178.44 284.62 178.17 283.86C177.96 283.27 177.74 282.73 177.54 282.12C177.23 281.17 176.79 280.3 176.53 279.31C176.35 278.66 176.19 277.99 176.01 277.33C175.74 276.35 175.43 276.11 174.79 275.39C174.48 275.04 174.79 275.25 174.62 274.98C173.81 273.76 172.38 272.48 171.22 271.57C170.65 271.12 170.34 270.82 169.85 270.31C169.08 269.51 168.33 268.71 167.7 267.79C167.22 267.09 166.87 266.44 166.47 265.7C166.15 265.12 166.9 266.75 166.9 266.75C167.45 267.89 167.98 268.83 168.69 269.88C169.13 270.52 169.54 271.16 169.99 271.8C170.21 272.12 170.52 272.55 170.61 272.93C171.26 275.67 172.3 278.46 173.45 281.03C173.85 281.92 174.26 282.79 174.69 283.66C175.59 285.53 176.24 287.51 176.76 289.53C177.03 290.55 177.26 291.57 177.49 292.6C179.01 298.21 175.81 306.19 186.2 308.99C187.62 309.37 188.2 309.89 187.8 310.59C186.8 310.69 185.73 310.71 184.64 310.63C183.56 310.54 182.47 310.34 181.44 310C180.42 309.7 179.42 309.24 178.57 308.62C177.72 307.99 177.01 307.2 176.62 306.2C176.34 305.54 176.29 304.99 175.44 305.46C174.79 305.82 172.71 307.88 172.27 308.54C171.68 309.44 171.08 310.95 170.91 312C170.8 312.76 170.78 313.52 170.66 314.26C170.64 314.41 170.55 314.97 170.31 314.89C170.14 314.83 170.24 314.15 170.25 313.98C170.35 312.5 170.31 311.65 170.79 310.2C171.22 308.92 171.48 308.23 172.31 307.15C172.92 306.36 173.35 305.79 173.84 304.91C174.39 303.9 174.84 303.08 174.71 301.89C174.49 299.88 174.2 297.92 173.77 295.94C172.77 291.32 171.73 286.87 168.97 282.93C168.36 281.95 167.72 281.04 167.02 280.24C167.02 281.64 167.02 283.14 166.83 284.64C166.62 286.23 166.62 287.83 165.42 289.03C165.4 287.25 164.47 285.79 163.65 284.27C163.28 283.58 162.97 283.43 162.74 282.55C162.48 281.57 162.54 280.87 162.77 279.9C163.25 277.95 163.13 276.51 162.31 274.67C162.08 274.15 161.73 273.61 161.46 273.08C161.17 272.51 161.01 272.17 160.77 271.56C160.28 270.28 160.05 268.96 159.63 267.66C159.44 267.07 159.31 266.53 159.09 265.93C158.87 265.34 158.69 264.71 158.47 264.1C158.19 263.33 158.05 262.43 157.82 261.63C158.1 262.54 158.23 263.38 158.57 264.3C158.8 264.93 159 265.57 159.23 266.2C159.43 266.75 159.58 267.35 159.77 267.91C160.06 268.77 160.25 269.69 160.54 270.57C160.71 271.07 160.88 271.59 161.11 272.07C161.25 272.37 160.93 271.65 160.93 271.64C160.5 270.55 160.25 269.57 159.95 268.45C159.8 267.89 159.6 267.34 159.43 266.78C159.27 266.24 159.05 265.67 158.87 265.13C158.65 264.48 158.43 263.91 158.26 263.25C158.1 262.62 157.95 262.03 157.78 261.4C157.4 260.07 157.37 258.07 157.34 256.66C157.31 255.41 157.28 254.15 157.28 252.9C157.28 251.89 157.5 250.8 157.56 249.78C157.62 248.85 157.78 247.93 157.8 247C157.8 246.87 157.81 246.81 157.78 246.69C157.63 246.72 157.67 246.78 157.65 246.96C157.57 247.65 157.54 248.31 157.44 249C157.36 249.65 157.35 250.28 157.25 250.95C157.13 251.79 157.06 252.54 157.07 253.39C157.07 255.47 157.04 257.74 157.2 259.8C157.27 260.62 157.38 261.11 157.59 261.9C157.83 262.78 157.95 263.56 158.26 264.44C158.48 265.07 158.68 265.72 158.89 266.36C159.06 266.89 159.19 267.44 159.36 267.98C159.64 268.85 159.8 269.81 160.07 270.71C160.41 271.85 160.69 272.57 161.23 273.64C161.6 274.36 161.84 274.75 162.06 275.55C162.52 277.2 162.39 278.29 161.81 279.87C161.48 280.74 161.43 281.28 161.29 282.18C161.12 283.35 160.83 283.41 160.27 284.38C159.55 285.63 159.08 286.92 158.76 288.32C158.57 289.16 158.43 290.02 158.34 290.9C158.32 292.33 158.26 292.49 159.05 293.71C159.88 295 161.15 296.15 162.18 297.3C162.75 297.95 163.45 299.19 163.75 300C163.92 300.47 164.1 300.91 164.26 301.39C164.58 302.33 165.01 303.26 165.36 304.2C165.51 304.61 165.79 305.16 166 305.55C166.22 305.98 166.41 306.27 166.61 306.74C166.69 306.93 167.03 307.67 167 307.81C166.94 308.1 166.67 307.71 166.61 307.61C166.31 307.07 166.11 306.54 165.78 305.99C165.56 305.64 165.32 305.17 165.12 304.8C164.93 304.45 164.77 304 164.6 303.63C164.23 302.83 163.9 302.04 163.57 301.22C162.88 299.53 162.15 298.35 160.61 297.31C160.3 297.1 158.55 295.83 158.39 296.67C158.34 296.93 158.37 298.15 158.36 298.51C158.33 301.42 158.18 304.38 157.52 307.22C157.28 308.24 156.95 311.13 156.62 312.11C155.61 314.18 155.02 315.61 153.82 315.81C155.02 313.41 154.62 310.62 155.34 308.16C155.5 306.94 155.59 305.72 155.62 304.5C155.72 300.81 155.33 297.43 154.87 293.79C154.8 293.23 154.84 292.86 154.71 292.27C154.61 291.8 154.54 291.47 154.48 290.99C154.26 289.41 154.03 287.83 153.83 286.25C153.78 285.12 153.77 283.99 153.83 282.85C153.89 281.72 154.01 280.59 154.21 279.46C153.26 280.26 152.37 281.1 151.52 281.98C150.67 282.86 149.87 283.77 149.09 284.72C148.33 285.81 147.53 286.88 146.72 287.93C146.01 288.85 145.78 288.99 145.81 290.21C145.83 291.13 146.11 292.04 146.33 292.93C146.7 294.4 147.14 295.53 147.89 296.86C148.24 297.49 148.49 298.2 148.61 298.9C148.85 300.34 148.85 302.3 148.86 303.79C148.86 304.26 148.79 304.9 148.75 305.39C148.69 306.01 148.6 306.58 148.56 307.22C148.5 308.22 148.49 308.98 148.72 309.97C148.9 310.76 149.32 311.45 149.41 312.28C149.44 312.55 149.28 312.61 149.18 312.29C149.02 311.74 148.93 311.43 148.71 310.88C148.32 309.94 148.18 308.9 148.19 307.89C148.21 306.64 148.39 305.46 148.44 304.23C148.47 303.55 148.4 302.54 148.36 301.84C148.29 300.65 148.2 299.04 147.68 297.98C147.47 297.55 147.36 297.37 147.09 296.97C146.33 295.82 145.81 294.77 145.2 293.55C145 293.16 144.07 291.49 143.5 291.85C143.16 292.07 141.59 294.07 141.26 294.52C140.61 295.41 140.6 295.53 140.59 296.61C140.58 297.26 140.82 298.9 140.96 299.55C141.11 300.24 141.31 300.86 141.43 301.55C141.52 302.05 141.64 302.55 141.73 303.06C141.84 303.61 142.04 304.05 142.13 304.65C142.23 305.33 142.35 305.93 142.4 306.62C142.45 307.18 142.55 307.7 142.59 308.27C142.69 309.7 142.69 311.31 142.67 312.75C142.67 312.86 142.7 313.41 142.48 313.3C142.27 313.19 142.28 311.88 142.28 311.6C142.24 310.1 142.21 308.65 141.93 307.17C141.82 306.61 141.78 306.1 141.65 305.53C141.49 304.86 141.43 304.43 141.16 303.79C140.98 303.35 140.86 302.9 140.71 302.45C140.51 301.86 140.39 301.44 140.12 300.86C139.95 300.49 139.29 298.85 138.85 298.86C138.53 298.87 138.12 299.99 138 300.28C135.5 306.29 135.29 312.78 137.02 319.03C135.22 318.83 134.9 316.97 134.42 315.73C133.95 314.49 133.92 312.4 133.62 311.14C132.47 306.18 132.62 301.05 134.9 296.46C135.32 295.24 135.83 294.05 136.44 292.89C137.04 291.73 137.74 290.59 138.53 289.5C139.16 288.35 139.79 287.21 140.39 286.06C140.99 284.91 141.58 283.76 142.11 282.61C142.5 281.66 142.86 280.7 143.18 279.73C143.59 278.3 143.91 276.82 144.5 275.36C145.03 274.2 145.37 274.06 145.4 272.64C145.42 271.81 145.33 271.04 145.39 270.19C145.48 268.88 145.54 267.81 145.92 266.54C146.26 265.39 146.48 264.31 146.91 263.18C147.34 262.06 147.25 261.27 147.5 260.16C147.69 259.35 147.7 258.83 147.76 258.03C147.82 257.22 148.17 255.74 148.5 254.99C148.85 254.24 149.09 253.89 149.57 253.22C150.05 252.55 150.5 251.53 150.66 250.72C150.73 250.35 150.8 249.94 150.86 249.57C151.17 247.83 151.07 246.04 151.13 244.28C151.17 242.95 151.76 241.46 152.22 240.21C152.59 239.19 152.55 238.19 152.7 237.14C152.98 235.1 152.9 232.84 152.93 230.77C152.93 230.42 152.83 230.48 152.81 230.76C152.75 231.77 152.77 232.9 152.75 233.92C152.73 235.12 152.68 236.11 152.51 237.3C152.36 238.43 152.43 239.21 151.98 240.33C151.59 241.31 151.07 242.8 150.96 243.83C150.88 244.55 150.9 245.47 150.88 246.23C150.84 247.52 150.79 248.64 150.53 249.92C150.33 250.9 150.36 251.11 149.9 252.05C149.63 252.6 149.52 252.81 149.15 253.29C148.49 254.14 148 255.14 147.73 256.19C147.52 257.03 147.4 257.43 147.33 258.32C147.26 259.15 147.16 259.58 146.97 260.37C146.77 261.19 146.8 261.87 146.48 262.71C146.34 263.08 146.18 263.43 146.04 263.8C145.7 264.71 145.43 265.6 145.09 266.51C144.71 267.53 144.57 268.28 144.34 269.32C144.24 269.82 144.1 270.28 144 270.78C143.8 271.8 143.7 272.87 143.11 273.77C142.89 274.11 142.8 274.3 142.63 274.66C142.43 275.07 142.19 275.44 141.94 275.81C141.01 277.2 140.14 278.44 139.21 279.59C138.51 280.24 137.82 280.89 137.15 281.57C136.48 282.24 135.84 282.94 135.21 283.65C134.25 284.5 133.44 285.43 132.7 286.42C131.96 287.41 131.3 288.45 130.66 289.51C129.38 291.83 128.18 294.63 126.19 296.63C126.59 294.63 126.6 292.74 127.49 291.13C128.2 289.65 129.29 285.93 129.09 284.14C128 283.73 127.24 286.12 126.23 286.25C124.88 286.6 123.48 288.8 122.4 289.44C121.31 290.08 117.09 292.77 116.2 293.63C110.75 299.44 111.41 303.82 105.41 309.41C107.01 302.62 110.61 294.23 116.36 289.69C117.46 288.91 118.57 288.15 119.64 287.41C120.71 286.67 121.75 285.93 122.71 285.21C123.67 284.41 124.51 283.58 125.19 282.69C126.08 281.8 126.84 280.89 127.45 279.95C128.19 278.95 129.01 278.04 130.66 277.43C132.99 276.63 133.73 273.66 135.22 271.85C135.49 271.52 135.71 271.33 136 271.03C136.8 270.19 136.69 269.12 137.13 268.06C137.45 267.29 138.39 266.26 138.93 265.54C139.6 264.65 139.92 264.47 140.27 263.35C140.42 262.87 140.62 262.39 140.77 261.91C140.97 261.26 140.58 261.22 140.27 261.75C139.82 262.5 139.67 263.44 139.1 264.09C138.79 264.44 138.43 264.79 138.11 265.15C137.33 266.02 136.4 266.69 135.69 267.61C135.13 268.33 134.8 268.98 134.12 269.64C133.38 270.35 132.86 270.96 132.21 271.74C131.56 272.51 130.98 273.1 129.99 273.43L129.83 273.48C127.67 274.17 126.83 275.11 124.94 276.35C124.39 276.71 123.79 276.96 123.2 277.28C122.23 277.85 121.28 278.48 120.35 279.13C119.48 279.77 118.62 280.41 117.77 281.05C116.71 281.78 115.67 282.53 114.65 283.31C109.85 286.98 105.32 290.97 100.79 294.97C100.18 295.51 99.58 296.2 98.99 296.79C98.29 297.5 97.58 298.2 96.87 298.9C96.49 299.27 95.73 300.21 95.46 300.67C95.13 301.23 94.96 301.73 94.71 302.32C94.28 303.33 93.98 304.28 93.68 305.33C93.64 305.48 93.33 306.65 93.01 306.29C92.86 306.12 93.23 304.83 93.29 304.59C93.53 303.64 93.81 302.77 94.16 301.85C94.45 301.09 94.55 300.67 95.01 299.94C95.28 299.52 95.68 299.03 95.99 298.63C96.37 298.15 96.94 297.61 97.37 297.14C98.15 296.29 98.78 295.6 99.44 294.65C101.61 291.58 104.25 288.25 107.01 285.71C108 284.8 109.03 283.97 110.13 283.2C111.05 282.55 112 281.96 113 281.43C113.8 280.63 114.2 279.43 114.55 278.74C114.7 278.26 114.72 277.7 114.41 277.31C113.77 276.48 112.84 277.71 112.25 278.09C111.12 278.84 109.97 279.18 108.81 279.58C103.06 283.19 97.33 287.45 93.32 293.01C92.99 293.47 92.66 294.1 92.37 294.59C92.17 294.92 92.01 295.25 91.81 295.59C91.31 296.41 90.79 297.18 90.35 298.03C90.05 298.58 89.81 299.03 89.54 299.61C89.27 300.2 88.93 300.81 88.64 301.41C88.42 301.85 88.21 302.19 88.03 302.67C87.66 303.62 87.24 304.76 87.07 305.75C87 306.14 86.93 306.51 86.86 306.89C86.81 307.13 86.96 306.58 86.96 306.58C87.05 306.19 87.11 305.78 87.21 305.39C87.13 305.75 86.95 307.15 86.63 307.3C86.23 307.49 86.45 306.38 86.47 306.22C86.57 305.41 86.64 304.96 86.88 304.16C87.18 303.14 87.41 302.28 87.86 301.31C88.08 300.84 88.27 300.28 88.49 299.79C88.78 299.13 88.98 298.49 89.29 297.83C89.51 297.35 89.66 296.95 89.93 296.46C90.34 295.71 90.68 295.1 91 294.3C91.25 293.67 91.46 293.18 91.67 292.54C92.01 291.48 92.23 290.52 92.23 289.4C89.03 289.67 85.22 290.17 82.27 291.45C80.89 292.05 79.7 293.04 78.56 294.02C77.99 294.51 77.5 294.96 76.9 295.43C76.44 295.78 76.01 296.11 75.56 296.48C74.21 297.61 73.21 298.42 72.3 299.98C71.9 300.67 71.81 301.57 71.48 302.09C71.28 302.4 70.96 302.43 71.1 301.92C71.25 301.41 71.37 300.84 71.53 300.35C71.81 299.46 72.65 298.24 73.28 297.54C73.9 296.85 74.64 296.11 75.31 295.47C75.62 295.17 75.94 294.9 76.25 294.6C76.9 293.97 77.53 293.23 78.16 292.56C79.07 291.62 79.91 290.79 80.93 289.97C82.47 288.73 84.21 287.47 86.19 287.07C86.34 287.04 86.48 287.02 86.63 287C94.22 286.6 98.22 281.01 104.25 277.74C105.07 277.34 105.91 277 106.76 276.72C109.58 275.88 110.83 276.02 113.27 273.37C114.96 271.54 117.11 271.93 118.94 271.33L113.53 269.42C113.53 269.42 109.57 267.72 107.48 267.72C105.39 267.72 103.38 269.08 101.92 270.22C100.46 271.35 96.57 275.11 95.38 276.24C94.2 277.38 93.5 278.29 92.23 279.43C90.97 280.58 88.49 280.79 89.04 280.67C89.32 280.61 90.43 279.52 91.3 278.48C92.17 277.45 92.82 276.48 92.17 276.68C90.89 277.08 89.18 276.22 88.04 275.83C87.47 275.63 85.54 275.13 83.77 274.69C79.88 272.37 77.38 275.87 74.93 278.41C74.11 279.26 73.56 279.99 72.89 280.96C72.54 281.48 72.22 281.9 71.9 282.44C71.35 283.37 70.72 284.19 70.03 285C69.74 285.33 69.55 285.57 69.22 285.89C68.47 286.63 67.8 287.37 67.01 288.08C66.53 288.51 65.29 289.72 64.99 290.24C64.86 290.45 64.19 291.96 63.93 291.65C63.82 291.52 64.12 291.06 64.19 290.92C64.68 289.93 64.63 289.9 65.41 289.05C65.89 288.52 66.32 288.07 66.84 287.58C67.56 286.9 68.25 286.07 68.93 285.34C69.54 284.69 70.35 283.5 70.77 282.72C71.3 281.74 71.75 280.71 72.25 279.7C72.9 278.38 73.16 277.67 74.19 276.57C74.68 276.05 75.36 275.5 75.78 274.99C76 274.73 76.18 274.45 75.85 274.2C71.05 271 65.16 273.1 62.76 279.09C62.72 279.57 61.93 280.49 61.61 280.9C61.15 281.48 60.81 281.86 60.29 282.37C59.69 282.96 59.2 283.59 58.57 284.18C57.87 284.85 57.22 285.53 56.49 286.17C55.53 287.01 54.88 287.71 54.22 288.81C54.15 288.93 53.32 290.46 53.1 290.04C53.01 289.86 53.52 289.08 53.62 288.89C54.16 287.92 54.57 287.28 55.32 286.45C55.87 285.84 56.55 285.27 57.11 284.64C57.67 284 58.19 283.45 58.7 282.76C59.05 282.28 59.39 281.81 59.76 281.33C60.31 280.61 60.74 279.79 61.04 278.94C61.38 277.92 61.74 277.57 62.32 276.69C62.76 276.02 63.25 275.23 63.26 274.41C57.67 276.01 49.07 277.81 43.88 275.81C45.08 275.81 46.28 276.61 47.88 276.21C59.87 274.21 71.45 268.22 83.46 271.62C84.55 271.86 85.59 272.1 86.57 272.31C88.52 272.74 90.18 273.07 91.36 273.07C96.09 273.07 98.17 266.94 103.04 264.21C107.91 261.49 112.18 261.46 116.21 263.28C118.4 264.26 120.9 264 123.53 264.33C124.32 263.17 125 263.16 126.8 262.48C128.01 262.02 129.23 261.55 130.44 261.05C134 259.57 134.31 259.19 137.06 255.9C138.04 251.35 138.87 253.43 138.99 248.09L139.78 242.68C140.86 235.67 141.54 228.58 141.38 221.49C141.37 220.94 141.32 220.15 142.1 220.71C143.29 221.56 143.93 222.38 144.82 223.5C145.31 224.11 145.71 224.46 146.1 225.2C146.53 226 146.73 226.54 146.91 227.44C147.05 228.16 147.26 228.79 147.38 229.52C147.47 230.05 147.62 230.57 147.75 231.09C147.85 231.47 148 231.84 148.11 232.24C148.2 232.56 148.64 233.98 148.81 234.11C149.03 234.27 148.97 233.86 148.94 233.77C148.81 233.21 148.58 232.64 148.44 232.06C148.33 231.63 148.19 231.26 148.09 230.82C147.98 230.3 147.87 229.94 147.79 229.39C147.69 228.65 147.48 227.95 147.36 227.19C147.15 225.81 146.55 224.56 145.7 223.46C145.26 222.89 144.86 222.19 144.42 221.58C143.92 220.89 143.41 220.22 143 219.47C142.37 218.31 141.73 217.32 141.28 216.06C141.06 215.45 140.95 215.13 140.86 214.47C140.33 210.28 139.35 206.06 137.56 202.22C137.06 201.14 138.73 201.55 139.2 201.74C139.86 202 140.55 202.46 141.18 202.83C142.05 203.33 142.67 203.72 143.47 204.33C143.64 204.46 144.41 205.09 144.58 204.77C144.71 204.53 143.96 203.95 143.78 203.78C142.72 202.85 141.55 202.13 140.46 201.22C139.7 200.6 138.73 200.06 137.87 199.58C136.79 198.97 136.69 199.08 135.82 198.03C135.28 197.38 134.82 196.16 134.46 195.34C131.15 187.99 127.3 182.3 119.85 178.61C113.94 175.69 107.09 174.78 100.55 174.71C95.67 174.71 92.01 174.71 88.45 175.8C70.72 182.34 60.75 194.34 37.23 189.97C36.01 189.97 37.14 188.88 38.36 188.88C63.2 194.33 77.4 174.71 97.85 171.44C91.48 168.17 82.85 167.08 76.57 164.9C65.78 167.08 56.12 168.17 44.78 163.81C44.69 162.72 44.69 162.72 44.69 162.72C56.03 167.08 65.69 165.99 73.95 162.72C65.26 157.41 58.34 149.74 55.29 140.8C54.34 138.01 55.69 139.13 56.62 140.89C57.9 143.33 58.66 145.09 60.27 147.48C73.23 166.73 98.87 168.48 120.54 170.31L120.92 170.35C115.86 163.4 110.58 156.78 106.22 149.47C105.5 148.25 105.93 148.6 104.41 148.34C97.63 147.11 94.93 145.64 89.13 142.35C86.79 141.02 84.11 140.46 81.46 140.16C80.1 140 78.59 140.23 77.1 140.15C75.54 140.07 73.26 139.87 71.77 139.35C69.09 138.29 66.75 136.23 65.16 134.05C64.38 132.96 67.4 135.82 67.42 135.83C70.76 138.38 72.73 138.43 76.79 138.84C78.46 139.01 82.01 139.19 81.77 136.97C81.63 135.68 79.46 134.22 78.4 133.04C75.14 129.38 72.27 124.5 70.4 120.19C72.02 120.17 71.46 119.93 72.31 121.45C75.05 126.35 78.33 131.45 82.68 135.42C84.7 137.26 85.48 138.42 88.08 139.94C92.94 142.78 98.44 144.96 104.14 145.22C103.28 142.77 102.18 140.3 101.29 137.8C99.73 133.41 98.61 129.37 97.41 124.93C96.71 122.32 95.25 122.04 93.13 120.31C91.24 118.74 89.62 116.9 87.84 115.44C86.35 114.22 84.96 113.73 83.21 112.93C81.38 112.09 84.93 112.88 85.25 112.98C90.08 114.62 94.02 119.39 95.33 119.82C96.74 120.28 95.81 116.65 95.7 115.91C94.91 110.95 93.72 106.1 93.74 101.14C93.74 100.3 93.63 99.51 94.72 99.92C95.18 101.56 95.81 103.76 96.04 105.55C96.56 109.53 97.51 113.19 98.16 117.11C98.47 119 98.83 121.08 100.3 122.63C101.78 124.05 103.1 121.04 103.56 120.21C104.82 115.16 105.54 118.8 107.24 113.93C107.04 112.05 108.3 109.49 107.88 112.91C107.87 117.45 105.92 115.19 105.12 122.19C103.67 125.55 100.97 125.23 102.71 130.31C102.96 131.04 104.05 135.1 105.75 138.28C107.12 140.85 109.09 142.63 109.33 143.17C111.87 148.88 112.12 140.98 113.93 138.44C115.64 136.11 116.82 134.33 119.4 132.64C120.98 131.67 121.86 132.42 121.16 132.61C120.5 132.8 119.82 134.01 119.4 134.55C117.4 137.12 116.63 138.49 115.7 141.56C114.51 146.11 113.9 149.2 115.99 153.91C116.75 155.61 118.99 157.65 120.29 159.33C122.14 161.72 124.09 163.96 125.95 166.38C126.63 167.26 128.35 169.92 129.65 169.67C130.34 169.54 130.88 168.73 131.22 168.25C132.87 165.74 132.65 162.12 132.74 159.16C132.83 156.18 132.89 153.99 133.41 151.03C133.89 148.31 133.84 145.65 134.34 142.85C134.67 140.99 135.28 137.92 134.34 136.11C133.63 134.95 131.96 133.63 130.91 132.61C128.2 129.86 125.92 127.23 123.39 124.38C120.4 121.01 118.28 120.8 115.26 118.21C112.32 115.69 110.93 111.75 110.86 108.32C110.81 105.71 111.79 108.13 111.95 109.1C112.51 112.27 112.06 113.67 114.83 116.42C117.5 119.06 120.76 119.86 123.68 122.77C124.93 124.05 129.57 129.61 132.98 131.18C133.69 131.51 134.52 132.9 135.09 132.81C135.82 132.69 136.22 130.9 136.53 129.79C137.4 126.7 137.73 121.58 137.12 118.35C136.56 115.36 136.73 116.22 137.31 113.84C137.2 113.91 137.44 113.19 137.34 113.27C133.47 107.77 129.91 102.08 127.2 95.86C115.41 94.24 102.75 91.16 97.78 78.98C98.57 78.66 99.16 79.29 100.34 80.72C103.57 87.77 111.23 90.81 119.14 92.52C121.64 93.06 124.16 93.47 126.58 93.83C122.86 84.09 122.85 81.57 123.75 70.94C123.95 69.89 124.45 69.51 125.29 69.58C124.5 79 125.5 84.21 128.2 91.52C130.66 98.18 134.21 104.21 138.18 110.01C138.61 106.73 139.06 102.26 140.2 100.61C140.48 101.82 139.89 112.58 139.63 114.42C139.24 117.23 139.95 118.58 139.99 121.23C140.06 126.26 138.17 131.27 137.71 136.3C137.44 139.49 137.14 142.27 136.66 145.44C136.28 148.01 137.74 148.28 139.96 147.11C144.32 144.8 144.41 138.41 149.16 135.34C149.62 135.06 150.75 134.53 151.93 134.07L152.03 135.26C151.64 135.41 151.37 135.51 151.34 135.52C147.27 137.29 146.54 141.61 144.53 145.01C142.57 148.25 141.05 149.11 138.4 151.63C135.37 154.52 136.18 157.19 136.31 160.94C136.49 165.98 136.16 169.11 135.42 174C135.03 176.55 135.27 177.23 137.13 179.38C140.74 183.34 144.09 187.95 146.76 192.59C147.1 193.18 147.28 193.82 147.46 194.48C147.57 194.87 147.81 195.28 147.94 195.7C148.26 196.74 148.4 198.66 148.44 199.78C148.46 200.19 148.33 200.88 148.3 201.34C148.26 201.79 148.25 202.04 148.17 202.5C148.05 203.13 148.02 203.72 147.88 204.33C147.5 205.97 147.56 207.93 147.55 209.62C147.55 209.82 147.52 210.68 147.67 210.78C148 211 147.99 209.37 147.99 209.22C148.04 207.6 148.04 205.9 148.49 204.34C148.65 203.8 148.69 203.25 148.84 202.67C148.94 202.28 149.02 202.02 149.08 201.6C149.15 201.06 149.27 200.66 149.38 200.15C149.47 199.73 149.49 198.86 149.53 198.39C149.6 197.38 149.67 196.34 149.76 195.34C149.85 194.26 150.33 193.57 150.82 192.63C151.38 191.55 151.9 190.47 152.39 189.36C154.45 184.7 156.76 179.48 158.15 172.8C150.93 169.9 148.21 163.03 145.76 156.44C146.14 153.85 145.7 153.32 147.57 155.25C149.56 160.6 152.89 166.78 158.74 169.52C159.74 162.87 159.79 154.86 157.96 144.75C157.66 143.13 157 141.01 156.23 138.55C153.49 129.82 149.95 119.15 155.16 104.31C153.97 99.64 147.19 90.61 145.36 84.87C142.84 78.04 140.89 70.04 141.62 61.26C142.61 59.26 143.04 61.8 143.02 63.66C142.32 72.03 144.71 77.04 147.11 83.54C147.27 83.98 147.44 84.41 147.61 84.84C156.91 84.43 171.31 80.97 175.24 70.14C176.84 68.46 176.28 68.71 176.42 70.62C171.68 82.25 159.46 85.01 148.14 86.72C150.27 91.45 153.49 96.39 156.44 100.65C157.33 98.39 157.19 98.41 158.49 96.04C159.51 94.86 160.99 94.93 160.09 96.74C153.17 109.43 153.62 117.63 158.33 131.07C158.77 132.33 159.49 132.8 160.79 131.93C164.39 129.21 165.62 122.95 165.15 118.93C164.74 115.43 164.5 113.51 165.01 109.95C165.08 109.49 165.44 106.41 166.3 106.6C166.79 106.71 166.34 109.13 166.3 109.51C165.9 112.91 165.96 114.68 166.43 118.04C166.78 120.47 166.8 121.86 166.55 124.3C166.53 124.48 166.51 124.66 166.49 124.85C166.02 128.07 164.31 132.32 162.86 135.3C160.96 139.17 161.77 140.26 163.17 144.02C163.3 144.39 163.44 144.76 163.58 145.13C168.5 172.35 159.43 180.54 157.38 206.52C158.26 208.71 158.84 210.56 159.36 212.85C159.6 213.89 159.78 214.96 160.01 216.01C160.13 216.57 160.29 217.04 160.38 217.62C160.55 218.62 160.62 219.84 160.69 220.86C160.75 221.65 160.8 222.44 160.84 223.23C160.87 223.73 160.82 224.41 160.8 224.92C160.76 225.99 160.28 227.24 159.9 228.24C159.66 228.86 159.33 229.48 159.09 230.11C158.78 230.91 158.5 231.58 158.24 232.41C158.09 232.88 157.97 233.22 157.87 233.72C157.74 234.34 157.63 234.76 157.56 235.41C157.45 236.48 157.22 237 157.39 238.13C157.48 238.74 157.52 239.28 157.65 239.89C157.67 239.97 157.83 240.85 157.83 240.85C157.93 241.04 158.01 240.74 158.01 240.59C158 240.14 157.81 239.56 157.77 239.07C157.68 238.05 157.54 237.61 157.7 236.54C157.77 236.08 157.85 235.63 157.92 235.16C158.12 233.68 158.79 231.86 159.4 230.49C159.79 229.6 160.23 228.77 160.59 227.86C161.03 226.74 161.4 225.94 161.5 224.7C161.55 224.11 161.64 223.6 161.65 223C161.69 221.24 161.8 219.44 161.78 217.68C161.77 216.67 161.61 215.78 161.65 214.75C161.7 213.7 161.85 213.31 162.14 212.31C165.97 199.5 170.2 189.37 179.34 179.34C181.21 177.19 181.44 176.51 181.05 173.96C180.31 169.07 179.99 165.94 180.16 160.9C180.29 157.14 181.1 154.47 178.07 151.59C175.42 149.07 174.19 148.05 171.94 144.97C170.1 142.46 170.4 142.21 174.26 145.49C174.98 146.1 175.75 146.66 176.52 147.07C178.73 148.24 180.2 147.98 179.82 145.4C179.35 142.23 179.04 139.46 178.77 136.26C178.32 131.23 176.43 126.22 176.49 121.19C176.53 118.54 177.24 117.19 176.84 114.38C176.58 112.54 175.99 101.78 176.28 100.57C177.51 102.34 177.94 107.4 178.4 110.7C185.9 99.89 191 89.5 192.16 77.24C192.34 75.34 193 73.63 192.98 71.63C193.38 70.74 193.86 70.15 194.23 71.41C193.79 88.93 189.69 99.1 179.73 113.23C179.54 113.58 179.35 113.92 179.16 114.27C179.79 117.19 179.94 115.14 179.34 118.32C178.73 121.56 179.07 126.68 179.93 129.76C180.24 130.87 180.65 132.65 181.37 132.78C181.94 132.87 182.76 131.48 183.48 131.15C186.89 129.59 191.52 124.03 192.78 122.74C195.69 119.83 198.95 119.04 201.63 116.39C204.41 113.65 203.95 112.24 204.51 109.07C204.68 108.09 205.65 105.67 205.6 108.29C205.53 111.72 204.14 115.66 201.2 118.18C198.18 120.77 196.06 120.98 193.07 124.35C190.54 127.2 188.26 129.83 185.55 132.58C184.51 133.6 182.84 134.93 182.12 136.08C181.18 137.89 181.79 140.96 182.12 142.82C182.62 145.62 182.57 148.27 183.05 151C183.57 153.95 183.62 156.14 183.72 159.13C183.81 162.09 183.59 165.71 185.24 168.22C185.58 168.7 186.12 169.51 186.81 169.64C188.11 169.89 189.83 167.23 190.51 166.35C192.37 163.93 194.32 161.69 196.17 159.3C197.46 157.62 199.71 155.59 200.47 153.88C202.56 149.18 201.95 146.08 200.76 141.53C199.83 138.47 199.06 137.09 197.06 134.52C196.64 133.98 195.95 132.77 195.3 132.58C194.6 132.39 195.48 131.64 197.06 132.61C199.65 134.3 200.82 136.07 202.53 138.41C204.34 140.95 204.59 148.85 207.13 143.14C207.37 142.6 209.34 140.82 210.71 138.25C212.4 135.07 213.5 131.01 213.75 130.28C215.49 125.2 212.78 125.52 211.33 122.16C209.49 117.9 209.02 116.15 209.22 113.79C209.66 114.05 210.15 114.25 210.66 114.37C210.85 116.1 211.47 117.71 212.9 120.18C213.36 121.01 214.68 124.02 216.16 122.6C217.63 121.04 217.98 118.97 218.3 117.08C218.95 113.16 219.91 109.5 220.42 105.52C220.65 103.73 220.68 101.28 221.14 99.64C222.23 99.23 222.11 100.03 222.12 100.86C222.14 105.82 221.55 110.92 220.75 115.88C220.63 116.63 219.7 120.25 221.12 119.79C222.43 119.36 226.36 114.59 231.2 112.95C231.52 112.85 235.07 112.06 233.24 112.9C231.49 113.7 230.1 114.19 228.61 115.41C226.83 116.87 225.2 118.71 223.32 120.28C221.21 122.01 219.75 122.29 219.04 124.9C217.84 129.34 216.71 133.37 215.16 137.77C214.27 140.27 213.16 142.74 212.31 145.19C218.01 144.93 223.5 142.76 228.37 139.91C230.96 138.39 231.75 137.23 233.77 135.39C238.12 131.42 241.4 126.32 244.14 121.42C244.99 119.9 244.43 120.14 246.05 120.16C244.17 124.47 241.3 129.35 238.04 133.01C236.99 134.18 234.81 135.65 234.67 136.94C234.43 139.16 237.98 138.98 239.65 138.81C243.71 138.4 245.68 138.35 249.02 135.8C249.03 135.79 251.29 134.28 250.5 135.37C248.91 137.56 247.35 138.3 244.65 139.32C243.18 139.88 240.89 140.04 239.33 140.12C237.84 140.19 236.33 139.97 234.97 140.13C232.32 140.43 229.64 141 227.3 142.32C221.49 145.6 218.79 147.08 212.02 148.31C210.5 148.58 210.93 148.22 210.21 149.44C205.84 156.75 200.56 163.37 195.51 170.32L195.89 170.28C217.56 168.45 243.2 166.7 256.16 147.45C257.77 145.06 258.53 143.3 259.81 140.86C260.74 139.09 262.09 137.98 261.13 140.77C258.09 149.71 251.16 157.38 242.48 162.69C250.74 165.96 260.4 167.05 271.74 162.69C271.74 162.69 271.74 162.69 271.65 163.78C260.31 168.14 250.65 167.05 239.86 164.87C233.58 167.05 224.96 168.14 218.58 171.41C239.03 174.68 253.23 194.31 278.07 188.85C279.29 188.85 280.42 189.94 279.2 189.94C255.67 194.3 245.71 182.31 227.98 175.77C224.42 174.68 220.76 174.68 215.88 174.68C188.38 174.96 184.3 190.39 179.54 200.85L179.6 200.84ZM281.66 102.64C290.58 99.82 294.55 91.36 290.58 83.83C281.66 85.71 277.69 95.11 281.66 102.64ZM127.88 205.31C121.19 200.72 120.21 191.42 126.47 185.88C132.32 189.9 133.31 199.2 127.88 205.31ZM186.6 208.49C193.92 204.14 195.6 194.47 189.42 188.24C183.01 192.05 181.34 201.72 186.6 208.49ZM44.86 99.46C36.6 96.35 34.38 88.35 39.62 82.72C47.02 86.53 50.1 93.83 44.86 99.46ZM64.32 149C58.22 146.33 56.59 139.48 60.45 134.66C65.91 137.92 68.18 144.18 64.32 149ZM109.65 167.22C102.48 165.44 99.43 158.25 102.75 152.26C109.33 154.82 112.97 161.23 109.65 167.22ZM94.72 140.99C88.78 136.62 88.68 128.8 94.04 124.53C99.15 129.4 100.08 136.72 94.72 140.99ZM144.07 182.3C147.34 176.4 144.44 169.88 138.35 168.37C135.97 174.36 137.99 180.79 144.07 182.3ZM148.96 188.31C155.38 184.67 156.4 176.92 151.59 172.04C145.94 176.27 144.15 183.43 148.96 188.31ZM166.61 187.66C173.03 184.02 174.05 176.27 169.24 171.39C163.59 175.62 161.8 182.78 166.61 187.66ZM68.94 171.35C73.96 165.93 81.73 166.72 85.37 172.53C79.96 177.06 72.58 177.16 68.94 171.35ZM91.87 164.31C88.96 157.52 92.84 150.74 99.62 149.77C101.56 156.56 98.65 163.34 91.87 164.31ZM123.72 158.64C120.68 152.55 123.72 144.94 130.57 143.42C134.37 149.51 129.81 156.36 123.72 158.64ZM146.13 169.75C149.15 163.01 145.37 156.17 138.6 155.1C136.56 161.86 139.36 168.68 146.13 169.75ZM179.35 174.58C180.35 167.27 174.8 161.76 168 162.64C167.94 169.7 172.55 175.46 179.35 174.58ZM207.33 134.94C207.33 128.07 201.32 122.92 194.46 124.64C194.46 130.65 200.47 135.79 207.33 134.94ZM246.25 144.13C252.6 146.17 258.36 142.1 258.66 135.92C252.39 134.75 246.55 137.95 246.25 144.13ZM230.53 171.51C234.61 175.8 242.17 173.82 245.19 168.56C240.65 165.27 233.56 166.25 230.53 171.51ZM244.2 52.22C238.31 56.67 238.32 64.48 243.73 68.69C248.78 63.76 249.61 56.43 244.2 52.22ZM193 160.09C196.28 153.53 193 145.34 185.63 143.7C181.54 150.26 186.45 157.63 193 160.09ZM209.3 152.59C206.45 157.78 210.61 164.39 216.55 165.67C218.31 160.35 215.24 153.88 209.3 152.59ZM108 193.06C114.17 197.73 112.7 207.83 106.3 212.52C101.37 207.11 101.6 197.75 108 193.06ZM90.82 192.89C97.04 195.94 97.49 205.07 92.67 210.29C87.4 206.38 86 198.11 90.82 192.89ZM98.92 199.73C92.8 191.95 95.03 180.76 104.34 176.59C109.69 183.4 107.47 194.59 98.92 199.73ZM84.46 196.87C88.3 204.24 82.24 213.36 73.87 214.97C71.57 207.45 76.09 198.48 84.46 196.87ZM120.27 195.17C112.25 193.93 107.33 185.98 110.58 178.28C117.6 179.37 122.52 187.32 120.27 195.17ZM92.99 176.42C96.99 183.7 91.15 192.96 82.82 194.77C80.35 187.31 84.66 178.23 92.99 176.42ZM76.32 183.93C80.71 192.02 75.91 202.46 67.32 203.99C62.93 195.9 67.73 185.46 76.32 183.93ZM24.42 195.39C25.31 204.2 17.65 210.21 10.25 209.67C9.07998 201.71 16.16 194.57 24.42 195.39ZM62.18 191.79C63.07 200.6 55.41 206.61 48.01 206.07C46.84 198.11 53.92 190.97 62.18 191.79ZM46.27 193.1C44.3 201.97 35.42 206.91 27.53 202.96C28.52 195.07 37.4 190.14 46.27 193.1ZM35.36 188.57C31.45 194.83 22.85 193.94 18.16 187.68C23.63 182.32 31.45 182.32 35.36 188.57ZM296.05 172.67C293.3 180.45 300.53 188.58 308.98 189C310.2 181.28 304.5 173.09 296.05 172.67ZM11.05 163.34C8.61998 171.22 16.17 179.06 24.62 179.14C25.53 171.38 19.5 163.43 11.05 163.34ZM224.88 192.9C218.66 195.95 218.21 205.08 223.03 210.3C228.3 206.39 229.7 198.12 224.88 192.9ZM216.78 199.74C222.9 191.96 220.68 180.77 211.37 176.6C206.02 183.41 208.24 194.6 216.78 199.74ZM6.49998 118.97C2.66998 126.34 8.71998 135.46 17.09 137.07C19.39 129.55 14.87 120.58 6.49998 118.97ZM143.91 46.88C140.11 40.18 143.11 32.56 149.78 30.62C152.61 37.45 150.58 44.94 143.91 46.88ZM134.12 29.5C130.32 22.8 133.31 15.18 139.98 13.24C142.81 20.07 140.79 27.56 134.12 29.5ZM120.32 19.15C114.43 14.18 114.61 6.00001 120.19 1.87001C125.21 7.30001 125.9 15.03 120.32 19.15ZM125.13 66.06C121.33 59.36 124.33 51.74 131 49.8C133.83 56.63 131.8 64.12 125.13 66.06ZM195.61 197.36C203.97 195.75 208.83 187.22 205.12 179.26C197.81 180.67 192.95 189.2 195.61 197.36ZM126.26 44.49C127.26 37.18 121.71 31.67 114.91 32.55C114.85 39.61 119.46 45.37 126.26 44.49ZM178.6 161.96C179.6 154.65 174.05 149.14 167.25 150.02C167.19 157.08 171.8 162.84 178.6 161.96ZM158.33 154.03C159.33 146.72 153.78 141.22 146.98 142.09C146.92 149.15 151.53 154.91 158.33 154.03ZM138.59 137.04C139.61 130.54 145.76 127.26 151.34 129.74C149.58 135.78 144.17 139.52 138.59 137.04ZM151.26 127.13C153.78 120.19 149.53 113.64 142.7 113.05C141.14 119.94 144.43 126.54 151.26 127.13ZM141.41 110.92C148.79 111.02 153.59 104.86 151.9 98.21C144.89 99 139.72 104.27 141.41 110.92ZM62.03 81.18C54.49 87.77 44 85.74 39.79 77.52C47.75 72.16 57.82 72.96 62.03 81.18ZM149.94 95.76C144.43 100.68 136.77 99.16 133.69 93.03C139.5 89.03 146.86 89.63 149.94 95.76ZM140.28 61.37C132.86 57.99 131.2 50.02 136.26 44.66C142.86 48.7 145.34 56.01 140.28 61.37ZM106.72 35.02C114.52 33.8 118.51 26.01 115.6 18.87C108.35 21.03 103.81 27.88 106.72 35.02ZM94.74 75.17C102.53 73.95 106.53 66.16 103.62 59.02C96.37 61.18 91.83 68.03 94.74 75.17ZM109.65 85.59C114.84 82 121.87 83.85 124.16 89.94C119.62 93.08 112.59 91.23 109.65 85.59ZM100.84 114.48C97.9 107.78 101.55 100.18 108.99 98.91C111.56 104.77 107.91 112.37 100.84 114.48ZM122.33 79.74C122.13 72.36 115.76 67.83 109.2 69.79C110.28 76.76 115.77 81.7 122.33 79.74ZM103.56 31.03C94.8 30.14 90.1 23.21 93.14 16.67C101.32 18.43 106.6 24.49 103.56 31.03ZM120.34 68.19C111.58 67.3 106.88 60.37 109.92 53.83C118.1 55.59 123.38 61.65 120.34 68.19ZM121.08 29.83C118.56 22.89 122.81 16.34 129.64 15.75C131.2 22.63 127.91 29.24 121.08 29.83ZM126.48 80.17C123.96 73.23 128.21 66.68 135.04 66.09C136.6 72.97 133.31 79.58 126.48 80.17ZM129.06 91.91C126.54 84.97 130.79 78.42 137.62 77.84C139.18 84.72 135.89 91.33 129.06 91.91ZM107.35 87.37C101.81 84.15 101.84 77.17 106.97 72.7C111.71 76.45 112.48 82.9 107.35 87.37ZM112.78 109.57C110.26 102.63 114.51 96.08 121.34 95.49C122.9 102.38 119.61 108.98 112.78 109.57ZM133.48 122.96C136.42 115.81 130.91 106.09 121.52 105.18C118.95 113.63 124.93 122.52 133.48 122.96ZM87.66 100.4C85.14 93.46 89.39 86.91 96.22 86.33C97.78 93.21 94.49 99.82 87.66 100.4ZM96.05 103.56C93.69 97.84 98.11 90.06 105.63 89.32C107.69 96.09 102.91 103.21 96.05 103.56ZM102.98 52.13C96.22 48.55 94.24 39.55 99.08 32.87C106.43 37.12 107.82 45.45 102.98 52.13ZM81.64 52.55C71.83 55.82 62.01 50.37 60.92 41.65C69.64 37.29 79.46 43.83 81.64 52.55ZM75.06 65.7C65.25 68.97 55.43 63.52 54.34 54.8C63.06 50.44 72.88 56.98 75.06 65.7ZM94.55 84.58C87.39 87.27 79.34 82.79 77.55 74.74C85.6 72.05 92.76 76.53 94.55 84.58ZM86.44 93.3C76.63 96.57 66.81 91.12 65.72 82.4C74.44 78.04 84.26 84.58 86.44 93.3ZM70.1 97.31C62.37 102.39 53.13 99.13 50.42 91C58.37 87.11 67.39 89.18 70.1 97.31ZM63.21 104.82C59.65 111.06 49.84 111.95 44.49 106.6C48.06 99.47 58.75 98.58 63.21 104.82ZM122.81 52.93C115.02 56.15 107.22 50.78 106.35 42.2C113.28 37.9 121.07 44.35 122.81 52.93ZM92.44 70.51C84.64 73.73 76.85 68.36 75.98 59.78C82.91 55.49 90.7 61.93 92.44 70.51ZM91.84 109.45C82.03 112.72 72.21 107.27 71.12 98.55C79.84 94.19 89.66 100.73 91.84 109.45ZM21.7 150.29C11.89 153.56 2.06998 148.11 0.97998 139.39C9.69998 135.03 19.52 141.57 21.7 150.29ZM82.39 133.49C79.48 126.7 83.36 119.92 90.15 118.95C92.09 125.74 89.18 132.52 82.39 133.49ZM155.13 41.73C155.13 34.41 161.54 28.92 168.85 30.75C168.85 37.16 162.44 42.64 155.13 41.73ZM105.19 136.82C105.19 129.5 111.6 124.02 118.91 125.84C118.91 132.25 112.5 137.73 105.19 136.82ZM92.42 148.29C91.53 155.37 83.57 161.57 76.49 158.91C76.49 150.95 84.45 145.63 92.42 148.29ZM70.9 180.1C63.27 182.28 54.55 176.83 54.55 169.2C61.09 167.02 69.81 172.47 70.9 180.1ZM120.28 147.21C117.23 141.12 120.28 133.51 127.13 131.99C130.94 138.08 126.37 144.93 120.28 147.21ZM40.74 105.9C34.07 108.4 26.57 104.23 24.9 96.73C32.4 94.23 39.07 98.4 40.74 105.9ZM41.34 132.87C34.67 135.37 27.17 131.2 25.5 123.7C33 121.2 39.67 125.37 41.34 132.87ZM36.65 139.05C31.07 145.55 21.78 146.48 16.2 139.98C20.85 133.47 30.14 132.54 36.65 139.05ZM50.18 126.71C42.2 128.7 34.24 121.73 34.24 112.76C42.21 110.77 50.18 117.74 50.18 126.71ZM43.64 162.64C38.45 168.7 29.8 167.83 24.61 161.77C29.8 156.58 39.32 156.58 43.64 162.64ZM41.46 144.52C40.5 152.19 30.92 157.93 22.29 154.1C24.21 145.48 33.79 140.69 41.46 144.52ZM54.26 134.34C51.88 141.5 42.94 143.39 37.44 138.57C40.12 132.17 48.31 130.59 54.26 134.34ZM95.19 61.06C85.38 57.79 81.02 47.98 85.38 39.25C95.19 41.43 99.55 52.33 95.19 61.06ZM55.63 163.75C45.82 160.48 41.46 150.67 45.82 141.94C55.63 144.12 59.99 155.02 55.63 163.75ZM33.89 109.46C29.11 115.95 19.77 117.07 14.17 112.45C19.1 105.08 28.44 103.95 33.89 109.46ZM86.03 144.22C81.25 150.71 71.91 151.83 66.31 147.21C71.24 139.84 80.58 138.71 86.03 144.22ZM77.84 72.56C74.28 78.8 64.47 79.69 59.12 74.34C62.69 67.21 73.38 66.32 77.84 72.56ZM69.05 128.9C65.49 135.14 55.68 136.03 50.34 130.68C53.9 123.55 64.6 122.66 69.05 128.9ZM35.15 92.33C26.26 95.29 17.37 90.35 16.38 82.45C24.29 78.5 33.17 84.43 35.15 92.33ZM68.71 123.5C59.82 126.46 50.93 121.52 49.94 113.62C57.84 109.67 66.73 115.6 68.71 123.5ZM53.45 187.74C43.64 184.47 39.28 174.66 43.64 165.93C53.45 168.11 56.73 179.01 53.45 187.74ZM41.46 186.65C32.73 187.74 24.01 180.11 25.11 170.3C33.83 168.12 42.55 175.75 41.46 186.65ZM210.74 55.08C208.09 47.56 212.56 40.45 219.74 39.82C221.37 47.28 217.92 54.45 210.74 55.08ZM170.39 49.49C167.74 41.97 172.21 34.86 179.39 34.23C181.02 41.69 177.57 48.85 170.39 49.49ZM147.61 77.06C144.96 69.54 149.43 62.43 156.61 61.8C158.24 69.26 154.79 76.43 147.61 77.06ZM160.49 81.56C166.53 77.3 166.78 69.5 161.51 65.12C156.31 69.88 155.23 77.18 160.49 81.56ZM172.92 32.14C169.98 23.83 174.94 15.98 182.9 15.28C184.71 23.52 180.88 31.44 172.92 32.14ZM157.94 59.11C155 50.8 159.96 42.95 167.92 42.25C169.73 50.49 165.9 58.41 157.94 59.11ZM145.45 61.33C142.93 54.39 147.18 47.84 154.01 47.25C155.57 54.13 152.28 60.74 145.45 61.33ZM168.43 27.75C170.95 20.81 166.7 14.26 159.87 13.67C158.31 20.56 161.6 27.16 168.43 27.75ZM173.23 72.1C175.75 65.16 171.5 58.61 164.67 58.02C163.11 64.9 166.4 71.51 173.23 72.1ZM170.46 19.57C178.09 15.81 179.79 6.95001 174.59 0.990005C167.81 5.48001 165.26 13.61 170.46 19.57ZM175.85 65.12C183.48 61.36 185.18 52.5 179.98 46.54C173.2 51.03 170.65 59.16 175.85 65.12ZM126.6 35.05C133.5 32.43 140.12 36.59 140.8 43.41C133.94 45.06 127.28 41.87 126.6 35.05ZM153.77 86.59C160.67 83.97 167.29 88.13 167.97 94.95C161.11 96.6 154.46 93.41 153.77 86.59ZM218.03 35.47C223.23 28.33 220.74 18.95 213.33 15.54C209.23 23 210.62 32.06 218.03 35.47ZM234.36 80.65C241 74.83 240.62 65.13 234.14 60.18C228.5 66.56 227.88 75.7 234.36 80.65ZM160.19 122.47C165.89 117.78 165.58 109.98 160 105.99C155.15 111.12 154.61 118.48 160.19 122.47ZM168.79 124.3C175.78 121.93 178.24 114.52 174.43 108.82C168.08 111.91 164.98 118.6 168.79 124.3ZM176.02 142.88C178.54 135.94 174.29 129.39 167.46 128.8C165.9 135.69 169.19 142.29 176.02 142.88ZM222.8 56.15C224.11 49.81 232.5 45.64 239.46 49.43C237.28 56.51 228.95 59.87 222.8 56.15ZM159.27 103.7C160.58 97.36 168.97 93.2 175.93 96.98C173.75 104.06 165.43 107.42 159.27 103.7ZM165.84 83.48C173.08 82.05 178.91 87.26 178.44 94.09C171.4 94.57 165.37 90.31 165.84 83.48ZM209.67 69.57C206.55 62.48 211.81 55.77 220.25 55.18C222.17 62.22 218.11 68.98 209.67 69.57ZM300.96 106.55C296.14 101.04 287.7 101.14 283.4 107.33C287.62 112.14 296.05 112.05 300.96 106.55ZM260.2 73.59C255.38 68.09 246.95 68.18 242.65 74.37C246.87 79.19 255.3 79.1 260.2 73.59ZM248.61 40.43C243.79 34.93 235.35 35.02 231.05 41.21C235.27 46.03 243.7 45.93 248.61 40.43ZM212.65 78.79C207.83 73.28 199.39 73.38 195.1 79.57C199.32 84.38 207.75 84.29 212.65 78.79ZM214.41 114.49C217.35 107.79 213.7 100.19 206.27 98.92C203.69 104.78 207.35 112.38 214.41 114.49ZM197.31 70.34C194.35 63 199.33 56.06 207.34 55.44C209.16 62.73 205.32 69.72 197.31 70.34ZM194.27 66.82C196.86 58.7 192.49 51.03 185.47 50.34C183.87 58.4 187.25 66.13 194.27 66.82ZM189.77 79.78C192.29 72.84 188.04 66.29 181.21 65.7C179.65 72.58 182.94 79.19 189.77 79.78ZM186.19 91.92C188.71 84.98 184.46 78.43 177.63 77.85C176.07 84.73 179.36 91.34 186.19 91.92ZM204.52 97.2C207.04 90.26 202.79 83.71 195.96 83.12C194.4 90 197.69 96.61 204.52 97.2ZM202.46 109.59C204.98 102.65 200.73 96.1 193.9 95.51C192.34 102.4 195.63 109 202.46 109.59ZM181.76 122.98C178.82 115.83 184.33 106.11 193.72 105.2C196.3 113.65 190.32 122.54 181.76 122.98ZM205.64 53.38C208.16 46.44 203.91 39.89 197.08 39.3C195.52 46.19 198.81 52.79 205.64 53.38ZM218.42 100.13C220.94 93.19 216.69 86.64 209.86 86.05C208.3 92.94 211.59 99.54 218.42 100.13ZM224.81 44.94C231.39 41.05 232.96 31.98 227.82 25.53C220.68 30.11 219.67 38.5 224.81 44.94ZM217.02 85.1C223.6 81.21 225.17 72.13 220.03 65.68C212.89 70.26 211.88 78.65 217.02 85.1ZM222.47 96.4C229.66 93.78 232.86 85.15 228.99 77.86C221.13 81.06 218.6 89.12 222.47 96.4ZM228.8 93.32C238.61 96.59 248.43 91.14 249.52 82.42C240.8 78.06 230.98 84.6 228.8 93.32ZM250.21 66.38C257.21 70.73 265.57 67.94 268.02 60.97C260.83 57.64 252.66 59.41 250.21 66.38ZM264.41 108.44C274.43 108.79 280.16 100.17 277.06 90.7C267.65 91.63 261.31 98.97 264.41 108.44ZM257.13 83.75C262.91 88.03 272.24 84.89 274.98 77.84C268.85 72.75 258.7 76.25 257.13 83.75ZM245.15 104.13C250.93 108.4 260.26 105.27 263 98.22C256.86 93.13 246.72 96.63 245.15 104.13ZM184.77 48.35C194.74 45.6 199.85 35.6 195.89 27.75C186.21 28.99 181.72 39.9 184.77 48.35ZM223.4 109.46C233.21 112.73 243.03 107.28 244.12 98.56C235.4 94.2 225.58 100.74 223.4 109.46ZM251.05 58.06C260.09 57.82 266.52 50.4 264.81 42.91C256.34 41.93 250.24 50.24 251.05 58.06ZM233.83 118.19C242.4 121.05 250.98 116.28 251.94 108.66C244.31 104.85 235.74 110.57 233.83 118.19ZM242.18 122.75C236.96 117.53 229.22 118.62 225.81 124.57C231.4 128.88 238.77 128.7 242.18 122.75ZM212.62 129.35C212.62 124.04 207.97 120.07 202.67 121.39C202.67 126.04 207.31 130.01 212.62 129.35ZM222.71 176.43C218.71 183.71 224.55 192.97 232.88 194.78C235.35 187.32 231.03 178.24 222.71 176.43ZM295.11 156.62C296.13 164.82 305.35 171.99 313.55 168.93V168.29C313.14 159.42 304.12 153.62 295.11 156.62ZM216 150.63C217.03 158.83 226.26 166.01 234.46 162.93C234.46 153.7 225.23 147.55 216 150.63ZM244.35 180.12C251.98 182.3 260.7 176.85 260.7 169.22C254.16 167.04 245.44 172.49 244.35 180.12ZM195.85 147.93C199.13 141.37 195.85 133.19 188.48 131.54C184.39 138.1 189.3 145.47 195.85 147.93ZM273.92 132.61C283.21 136.05 293.66 130.31 295.98 120.01C285.53 116.57 276.24 122.3 273.92 132.61ZM279.67 137.83C285.72 144.88 295.78 145.89 301.83 138.84C296.79 131.79 286.72 130.78 279.67 137.83ZM265.08 126.69C273.8 128.87 282.52 121.24 282.52 111.43C273.8 109.24 265.08 116.88 265.08 126.69ZM271.62 161.58C278.16 169.21 289.06 168.12 295.61 160.49C289.07 153.95 277.07 153.95 271.62 161.58ZM273.8 144.53C274.76 152.2 284.34 157.94 292.97 154.11C291.05 145.49 281.47 140.7 273.8 144.53ZM295.17 113.97C297.54 121.13 306.48 123.02 311.99 118.2C309.3 111.8 301.12 110.22 295.17 113.97ZM261.01 134.35C263.38 141.51 272.32 143.4 277.83 138.58C275.14 132.18 266.96 130.6 261.01 134.35ZM259.63 163.76C269.44 160.49 273.8 150.68 269.44 141.95C259.63 144.13 255.27 155.03 259.63 163.76ZM228.01 144.13C232.37 152.85 243.27 156.12 250.91 151.76C246.55 141.95 235.65 138.68 228.01 144.13ZM294.14 147.79C297.71 154.03 307.51 154.92 312.86 149.57C309.29 142.44 298.6 141.55 294.14 147.79ZM242 129.21C245.56 135.45 255.37 136.34 260.72 130.99C257.15 123.86 246.46 122.97 242 129.21ZM246.54 123.51C255.43 126.47 264.32 121.53 265.3 113.63C257.4 109.68 248.51 115.61 246.54 123.51ZM239.37 183.94C234.98 192.03 239.78 202.47 248.37 204C252.76 195.91 247.96 185.47 239.37 183.94ZM253.52 191.8C252.63 200.61 260.29 206.62 267.69 206.08C268.86 198.12 261.78 190.98 253.52 191.8ZM269.43 193.11C271.4 201.98 280.28 206.92 288.17 202.97C287.19 195.08 278.31 190.15 269.43 193.11ZM261.8 187.75C271.61 184.48 275.97 174.67 271.61 165.94C261.8 168.12 258.53 179.02 261.8 187.75ZM273.79 186.66C282.51 187.75 291.23 180.12 290.14 170.31C281.42 168.13 272.7 175.76 273.79 186.66ZM280.33 189.59C284.42 196.12 293.42 195.19 298.33 188.66C292.6 183.06 284.42 183.06 280.33 189.59Z" fill="#FFC300"/>
</svg>
